<?xml version="1.0"?>
<!-- Generated by SVGo -->
<svg width="800" height="500"
     xmlns="http://www.w3.org/2000/svg"
     xmlns:xlink="http://www.w3.org/1999/xlink">
<rect x="0" y="0" width="800" height="500" style="fill:rgb(250,250,250)"/>
<g style="stroke:lightgray">
<line x1="0" y1="0" x2="0" y2="500" />
<line x1="25" y1="0" x2="25" y2="500" />
<line x1="50" y1="0" x2="50" y2="500" />
<line x1="75" y1="0" x2="75" y2="500" />
<line x1="100" y1="0" x2="100" y2="500" />
<line x1="125" y1="0" x2="125" y2="500" />
<line x1="150" y1="0" x2="150" y2="500" />
<line x1="175" y1="0" x2="175" y2="500" />
<line x1="200" y1="0" x2="200" y2="500" />
<line x1="225" y1="0" x2="225" y2="500" />
<line x1="250" y1="0" x2="250" y2="500" />
<line x1="275" y1="0" x2="275" y2="500" />
<line x1="300" y1="0" x2="300" y2="500" />
<line x1="325" y1="0" x2="325" y2="500" />
<line x1="350" y1="0" x2="350" y2="500" />
<line x1="375" y1="0" x2="375" y2="500" />
<line x1="400" y1="0" x2="400" y2="500" />
<line x1="425" y1="0" x2="425" y2="500" />
<line x1="450" y1="0" x2="450" y2="500" />
<line x1="475" y1="0" x2="475" y2="500" />
<line x1="500" y1="0" x2="500" y2="500" />
<line x1="525" y1="0" x2="525" y2="500" />
<line x1="550" y1="0" x2="550" y2="500" />
<line x1="575" y1="0" x2="575" y2="500" />
<line x1="600" y1="0" x2="600" y2="500" />
<line x1="625" y1="0" x2="625" y2="500" />
<line x1="650" y1="0" x2="650" y2="500" />
<line x1="675" y1="0" x2="675" y2="500" />
<line x1="700" y1="0" x2="700" y2="500" />
<line x1="725" y1="0" x2="725" y2="500" />
<line x1="750" y1="0" x2="750" y2="500" />
<line x1="775" y1="0" x2="775" y2="500" />
<line x1="800" y1="0" x2="800" y2="500" />
<line x1="0" y1="0" x2="800" y2="0" />
<line x1="0" y1="25" x2="800" y2="25" />
<line x1="0" y1="50" x2="800" y2="50" />
<line x1="0" y1="75" x2="800" y2="75" />
<line x1="0" y1="100" x2="800" y2="100" />
<line x1="0" y1="125" x2="800" y2="125" />
<line x1="0" y1="150" x2="800" y2="150" />
<line x1="0" y1="175" x2="800" y2="175" />
<line x1="0" y1="200" x2="800" y2="200" />
<line x1="0" y1="225" x2="800" y2="225" />
<line x1="0" y1="250" x2="800" y2="250" />
<line x1="0" y1="275" x2="800" y2="275" />
<line x1="0" y1="300" x2="800" y2="300" />
<line x1="0" y1="325" x2="800" y2="325" />
<line x1="0" y1="350" x2="800" y2="350" />
<line x1="0" y1="375" x2="800" y2="375" />
<line x1="0" y1="400" x2="800" y2="400" />
<line x1="0" y1="425" x2="800" y2="425" />
<line x1="0" y1="450" x2="800" y2="450" />
<line x1="0" y1="475" x2="800" y2="475" />
<line x1="0" y1="500" x2="800" y2="500" />
</g>
<text x="56" y="27" style="text-anchor:end;font-size:11px;fill-opacity:0.30;font-family:Verdana">proces A</text>
<text x="86" y="67" style="text-anchor:end;font-size:11px;fill-opacity:0.30;font-family:Verdana">proces B</text>
<line x1="100" y1="39" x2="100" y2="51" style="stroke:black;stroke-width:2;fill:none;stroke-opacity:0.30;stroke-linecap:round;stroke-dasharray:5, 5"/>
<circle cx="100" cy="65" r="4" style="fill-opacity:0.30;"/>
<text x="116" y="107" style="text-anchor:end;font-size:11px;fill-opacity:0.30;font-family:Verdana">proces C</text>
<line x1="130" y1="39" x2="130" y2="91" style="stroke:black;stroke-width:2;fill:none;stroke-opacity:0.30;stroke-linecap:round;stroke-dasharray:5, 5"/>
<circle cx="130" cy="105" r="4" style="fill-opacity:0.30;"/>
<line x1="84" y1="25" x2="146" y2="25" style="stroke:black;stroke-width:2;fill:none;stroke-opacity:0.30;stroke-linecap:round"/>
<polyline points="149,36 149,14 171,14" style="stroke:red;stroke-width:2;fill:none;stroke-opacity:0.30;stroke-linecap:round"/>
<line x1="144" y1="105" x2="206" y2="105" style="stroke:black;stroke-width:2;fill:none;stroke-opacity:0.30;stroke-linecap:round"/>
<polygon points="211,94 231,94 231,114" style="stroke:none;stroke-width:2;fill:red;stroke-opacity:0.30;fill-opacity:0.30"/>
<rect x="213" y="18" width="18" height="18" style="stroke:none;stroke-width:2;fill:red;stroke-opacity:0.30;fill-opacity:0.30"/>
<polygon points="209,96 209,116 229,116" style="stroke:red;stroke-width:2;fill:none;stroke-opacity:0.30"/>
<line x1="220" y1="39" x2="220" y2="91" style="stroke:red;stroke-width:2;fill:none;stroke-opacity:0.30;stroke-linecap:round"/>
<line x1="174" y1="25" x2="206" y2="25" style="stroke:black;stroke-width:2;fill:none;stroke-opacity:0.30;stroke-linecap:round;stroke-dasharray:5, 5"/>
<polyline points="239,36 239,14 261,14" style="stroke:red;stroke-width:2;fill:none;stroke-opacity:0.30;stroke-linecap:round"/>
<line x1="114" y1="65" x2="296" y2="65" style="stroke:black;stroke-width:2;fill:none;stroke-opacity:0.30;stroke-linecap:round"/>
<polygon points="301,54 321,54 321,74" style="stroke:none;stroke-width:2;fill:red;stroke-opacity:0.30;fill-opacity:0.30"/>
<rect x="303" y="18" width="18" height="18" style="stroke:none;stroke-width:2;fill:red;stroke-opacity:0.30;fill-opacity:0.30"/>
<polygon points="299,56 299,76 319,76" style="stroke:red;stroke-width:2;fill:none;stroke-opacity:0.30"/>
<line x1="310" y1="39" x2="310" y2="51" style="stroke:red;stroke-width:2;fill:none;stroke-opacity:0.30;stroke-linecap:round"/>
<line x1="264" y1="25" x2="296" y2="25" style="stroke:black;stroke-width:2;fill:none;stroke-opacity:0.30;stroke-linecap:round;stroke-dasharray:5, 5"/>
</svg>

