<?xml version="1.0"?>
<!-- Generated by SVGo -->
<svg width="800" height="500"
     xmlns="http://www.w3.org/2000/svg"
     xmlns:xlink="http://www.w3.org/1999/xlink">
<text x="106" y="27" style="text-anchor:end;font-size:11px;fill-opacity:0.30;font-family:Verdana">A</text>
<text x="136" y="67" style="text-anchor:end;font-size:11px;fill-opacity:0.30;font-family:Verdana">B</text>
<line x1="150" y1="39" x2="150" y2="51" style="stroke:black;stroke-width:2;fill:none;stroke-opacity:0.30;stroke-linecap:round;stroke-dasharray:5, 5"/>
<circle cx="150" cy="65" r="4" style="fill-opacity:0.30;"/>
<text x="166" y="107" style="text-anchor:end;font-size:11px;fill-opacity:0.30;font-family:Verdana">C</text>
<line x1="180" y1="39" x2="180" y2="91" style="stroke:black;stroke-width:2;fill:none;stroke-opacity:0.30;stroke-linecap:round;stroke-dasharray:5, 5"/>
<circle cx="180" cy="105" r="4" style="fill-opacity:0.30;"/>
<line x1="134" y1="25" x2="196" y2="25" style="stroke:black;stroke-width:2;fill:none;stroke-opacity:0.30;stroke-linecap:round"/>
<polyline points="199,36 199,14 221,14" style="stroke:red;stroke-width:2;fill:none;stroke-opacity:0.30;stroke-linecap:round"/>
<line x1="194" y1="105" x2="256" y2="105" style="stroke:black;stroke-width:2;fill:none;stroke-opacity:0.30;stroke-linecap:round"/>
<polygon points="259,96 259,116 279,116" style="stroke:red;stroke-width:2;fill:none;stroke-opacity:0.30"/>
<rect x="263" y="18" width="18" height="18" style="stroke:none;stroke-width:2;fill:red;stroke-opacity:0.30;fill-opacity:0.30"/>
<polygon points="261,94 281,94 281,114" style="stroke:none;stroke-width:2;fill:red;stroke-opacity:0.30;fill-opacity:0.30"/>
<line x1="270" y1="39" x2="270" y2="91" style="stroke:red;stroke-width:2;fill:none;stroke-opacity:0.30;stroke-linecap:round"/>
<line x1="224" y1="25" x2="256" y2="25" style="stroke:black;stroke-width:2;fill:none;stroke-opacity:0.30;stroke-linecap:round;stroke-dasharray:5, 5"/>
<line x1="284" y1="25" x2="286" y2="25" style="stroke:black;stroke-width:2;fill:none;stroke-opacity:0.30;stroke-linecap:round"/>
<polyline points="289,36 289,14 311,14" style="stroke:red;stroke-width:2;fill:none;stroke-opacity:0.30;stroke-linecap:round"/>
<line x1="164" y1="65" x2="346" y2="65" style="stroke:black;stroke-width:2;fill:none;stroke-opacity:0.30;stroke-linecap:round"/>
<polygon points="349,56 349,76 369,76" style="stroke:red;stroke-width:2;fill:none;stroke-opacity:0.30"/>
<rect x="353" y="18" width="18" height="18" style="stroke:none;stroke-width:2;fill:red;stroke-opacity:0.30;fill-opacity:0.30"/>
<polygon points="351,54 371,54 371,74" style="stroke:none;stroke-width:2;fill:red;stroke-opacity:0.30;fill-opacity:0.30"/>
<line x1="360" y1="39" x2="360" y2="51" style="stroke:red;stroke-width:2;fill:none;stroke-opacity:0.30;stroke-linecap:round"/>
<line x1="314" y1="25" x2="346" y2="25" style="stroke:black;stroke-width:2;fill:none;stroke-opacity:0.30;stroke-linecap:round;stroke-dasharray:5, 5"/>
<line x1="284" y1="105" x2="286" y2="105" style="stroke:black;stroke-width:2;fill:none;stroke-opacity:0.30;stroke-linecap:round"/>
<polygon points="289,96 289,116 309,116" style="stroke:blue;stroke-width:2;fill:none;stroke-opacity:0.30"/>
<line x1="374" y1="65" x2="406" y2="65" style="stroke:black;stroke-width:2;fill:none;stroke-opacity:0.30;stroke-linecap:round"/>
<polyline points="409,76 409,54 431,54" style="stroke:blue;stroke-width:2;fill:none;stroke-opacity:0.30;stroke-linecap:round"/>
<polygon points="411,94 431,94 431,114" style="stroke:none;stroke-width:2;fill:blue;stroke-opacity:0.30;fill-opacity:0.30"/>
<rect x="413" y="58" width="18" height="18" style="stroke:none;stroke-width:2;fill:blue;stroke-opacity:0.30;fill-opacity:0.30"/>
<line x1="420" y1="79" x2="420" y2="91" style="stroke:blue;stroke-width:2;fill:none;stroke-opacity:0.30;stroke-linecap:round"/>
<line x1="314" y1="105" x2="406" y2="105" style="stroke:black;stroke-width:2;fill:none;stroke-opacity:0.30;stroke-linecap:round;stroke-dasharray:5, 5"/>
<line x1="374" y1="25" x2="526" y2="25" style="stroke:black;stroke-width:2;fill:none;stroke-opacity:0.30;stroke-linecap:round"/>
<line x1="434" y1="65" x2="526" y2="65" style="stroke:black;stroke-width:2;fill:none;stroke-opacity:0.30;stroke-linecap:round"/>
</svg>

