<?xml version="1.0"?>
<!-- Generated by SVGo -->
<svg width="800" height="250"
     xmlns="http://www.w3.org/2000/svg"
     xmlns:xlink="http://www.w3.org/1999/xlink">
<text x="106" y="27" style="text-anchor:end;font-size:11px;fill-opacity:0.30;font-family:Verdana">going for a walk</text>
<text x="136" y="107" style="text-anchor:end;font-size:11px;fill-opacity:0.30;font-family:Verdana">Alice getting ready</text>
<line x1="150" y1="39" x2="150" y2="91" style="stroke:black;stroke-width:2;fill:none;stroke-opacity:0.30;stroke-linecap:round;stroke-dasharray:5, 5"/>
<circle cx="150" cy="105" r="4" style="fill-opacity:0.30;"/>
<text x="166" y="67" style="text-anchor:end;font-size:11px;fill-opacity:0.30;font-family:Verdana">Bob getting ready</text>
<line x1="180" y1="39" x2="180" y2="51" style="stroke:black;stroke-width:2;fill:none;stroke-opacity:0.30;stroke-linecap:round;stroke-dasharray:5, 5"/>
<circle cx="180" cy="65" r="4" style="fill-opacity:0.30;"/>
<line x1="134" y1="25" x2="196" y2="25" style="stroke:black;stroke-width:2;fill:none;stroke-opacity:0.30;stroke-linecap:round"/>
<polyline points="199,36 199,14 221,14" style="stroke:red;stroke-width:2;fill:none;stroke-opacity:0.30;stroke-linecap:round"/>
<line x1="194" y1="65" x2="286" y2="65" style="stroke:black;stroke-width:2;fill:none;stroke-opacity:0.30;stroke-linecap:round"/>
<polygon points="289,56 289,76 309,76" style="stroke:red;stroke-width:2;fill:none;stroke-opacity:0.30"/>
<rect x="293" y="18" width="18" height="18" style="stroke:none;stroke-width:2;fill:red;stroke-opacity:0.30;fill-opacity:0.30"/>
<polygon points="291,54 311,54 311,74" style="stroke:none;stroke-width:2;fill:red;stroke-opacity:0.30;fill-opacity:0.30"/>
<line x1="300" y1="39" x2="300" y2="51" style="stroke:red;stroke-width:2;fill:none;stroke-opacity:0.30;stroke-linecap:round"/>
<line x1="224" y1="25" x2="286" y2="25" style="stroke:black;stroke-width:2;fill:none;stroke-opacity:0.30;stroke-linecap:round;stroke-dasharray:5, 5"/>
<line x1="314" y1="25" x2="316" y2="25" style="stroke:black;stroke-width:2;fill:none;stroke-opacity:0.30;stroke-linecap:round"/>
<polyline points="319,36 319,14 341,14" style="stroke:red;stroke-width:2;fill:none;stroke-opacity:0.30;stroke-linecap:round"/>
<line x1="164" y1="105" x2="466" y2="105" style="stroke:black;stroke-width:2;fill:none;stroke-opacity:0.30;stroke-linecap:round"/>
<polygon points="469,96 469,116 489,116" style="stroke:red;stroke-width:2;fill:none;stroke-opacity:0.30"/>
<rect x="473" y="18" width="18" height="18" style="stroke:none;stroke-width:2;fill:red;stroke-opacity:0.30;fill-opacity:0.30"/>
<polygon points="471,94 491,94 491,114" style="stroke:none;stroke-width:2;fill:red;stroke-opacity:0.30;fill-opacity:0.30"/>
<line x1="480" y1="39" x2="480" y2="91" style="stroke:red;stroke-width:2;fill:none;stroke-opacity:0.30;stroke-linecap:round"/>
<line x1="344" y1="25" x2="466" y2="25" style="stroke:black;stroke-width:2;fill:none;stroke-opacity:0.30;stroke-linecap:round;stroke-dasharray:5, 5"/>
<line x1="494" y1="25" x2="706" y2="25" style="stroke:black;stroke-width:2;fill:none;stroke-opacity:0.30;stroke-linecap:round"/>
</svg>

